{
  "accessors": [
    {
      "bufferView": 2,
      "componentType": 5126,
      "count": 641,
      "max": [
        5.44612455368042,
        5.4461236000061035,
        0.20000004768371582
      ],
      "min": [
        -5.446123123168945,
        -5.446124076843262,
        0.0
      ],
      "type": "VEC3"
    },
    {
      "bufferView": 2,
      "byteOffset": 7692,
      "componentType": 5126,
      "count": 641,
      "max": [
        0.9789512753486633,
        0.9789518117904663,
        1.0
      ],
      "min": [
        -0.9789530634880066,
        -0.9789518713951111,
        0.20406869053840637
      ],
      "type": "VEC3"
    },
    {
      "bufferView": 1,
      "componentType": 5126,
      "count": 641,
      "max": [
        0.9984610080718994,
        0.9984610080718994
      ],
      "min": [
        0.0015389579348266125,
        0.0015389579348266125
      ],
      "type": "VEC2"
    },
    {
      "bufferView": 0,
      "componentType": 5125,
      "count": 3600,
      "type": "SCALAR"
    },
    {
      "bufferView": 2,
      "byteOffset": 15384,
      "componentType": 5126,
      "count": 320,
      "max": [
        3.9164183139801025,
        3.896141529083252,
        4.568925857543945
      ],
      "min": [
        -3.9164159297943115,
        -3.8961410522460938,
        1.9736454486846924
      ],
      "type": "VEC3"
    },
    {
      "bufferView": 2,
      "byteOffset": 19224,
      "componentType": 5126,
      "count": 320,
      "max": [
        0.995610773563385,
        0.9892135262489319,
        0.9983606338500977
      ],
      "min": [
        -0.9961593151092529,
        -0.9892014861106873,
        -0.9947898387908936
      ],
      "type": "VEC3"
    },
    {
      "bufferView": 3,
      "componentType": 5126,
      "count": 320,
      "max": [
        0.9779263138771057,
        0.7409895658493042,
        0.9747834205627441,
        1.0
      ],
      "min": [
        -0.9991118311882019,
        -1.0,
        -0.9600285887718201,
        -1.0
      ],
      "type": "VEC4"
    },
    {
      "bufferView": 1,
      "byteOffset": 5128,
      "componentType": 5126,
      "count": 320,
      "max": [
        0.9627559185028076,
        0.9954566955566406
      ],
      "min": [
        0.024031158536672592,
        0.008072763681411743
      ],
      "type": "VEC2"
    },
    {
      "bufferView": 1,
      "byteOffset": 7688,
      "componentType": 5126,
      "count": 320,
      "max": [
        0.9627559185028076,
        0.9954566955566406
      ],
      "min": [
        0.024031158536672592,
        0.008072763681411743
      ],
      "type": "VEC2"
    },
    {
      "bufferView": 1,
      "byteOffset": 10248,
      "componentType": 5126,
      "count": 320,
      "max": [
        0.9627559185028076,
        0.9954566955566406
      ],
      "min": [
        0.024031158536672592,
        0.008072763681411743
      ],
      "type": "VEC2"
    },
    {
      "bufferView": 0,
      "byteOffset": 14400,
      "componentType": 5125,
      "count": 1284,
      "type": "SCALAR"
    },
    {
      "bufferView": 2,
      "byteOffset": 23064,
      "componentType": 5126,
      "count": 2803,
      "max": [
        3.8689236640930176,
        3.860903739929199,
        4.479475021362305
      ],
      "min": [
        -3.857802391052246,
        -3.5953073501586914,
        0.1693408489227295
      ],
      "type": "VEC3"
    },
    {
      "bufferView": 2,
      "byteOffset": 56700,
      "componentType": 5126,
      "count": 2803,
      "max": [
        1.0,
        1.0,
        1.0
      ],
      "min": [
        -1.0,
        -1.0,
        -1.0
      ],
      "type": "VEC3"
    },
    {
      "bufferView": 3,
      "byteOffset": 5120,
      "componentType": 5126,
      "count": 2803,
      "max": [
        1.0,
        1.0,
        1.0,
        1.0
      ],
      "min": [
        -1.0,
        -1.0,
        -1.0,
        1.0
      ],
      "type": "VEC4"
    },
    {
      "bufferView": 1,
      "byteOffset": 12808,
      "componentType": 5126,
      "count": 2803,
      "max": [
        0.9976625442504883,
        0.996213972568512
      ],
      "min": [
        0.0013853511773049831,
        0.0022954328451305628
      ],
      "type": "VEC2"
    },
    {
      "bufferView": 1,
      "byteOffset": 35232,
      "componentType": 5126,
      "count": 2803,
      "max": [
        0.9976625442504883,
        0.996213972568512
      ],
      "min": [
        0.0013853511773049831,
        0.0022954328451305628
      ],
      "type": "VEC2"
    },
    {
      "bufferView": 1,
      "byteOffset": 57656,
      "componentType": 5126,
      "count": 2803,
      "max": [
        0.9976625442504883,
        0.996213972568512
      ],
      "min": [
        0.0013853511773049831,
        0.0022954328451305628
      ],
      "type": "VEC2"
    },
    {
      "bufferView": 0,
      "byteOffset": 19536,
      "componentType": 5125,
      "count": 4326,
      "type": "SCALAR"
    }
  ],
  "asset": {
    "extras": {
      "author": "Takoyto (https://sketchfab.com/Takoyto)",
      "license": "SKETCHFAB Standard (https://sketchfab.com/licenses)",
      "source": "https://sketchfab.com/3d-models/barn-1564f55278844cce95456a7a944f54c1",
      "title": "Barn"
    },
    "generator": "Sketchfab-15.87.0",
    "version": "2.0"
  },
  "bufferViews": [
    {
      "buffer": 0,
      "byteLength": 36840,
      "name": "floatBufferViews",
      "target": 34963
    },
    {
      "buffer": 0,
      "byteLength": 80080,
      "byteOffset": 36840,
      "byteStride": 8,
      "name": "floatBufferViews",
      "target": 34962
    },
    {
      "buffer": 0,
      "byteLength": 90336,
      "byteOffset": 116920,
      "byteStride": 12,
      "name": "floatBufferViews",
      "target": 34962
    },
    {
      "buffer": 0,
      "byteLength": 49968,
      "byteOffset": 207256,
      "byteStride": 16,
      "name": "floatBufferViews",
      "target": 34962
    }
  ],
  "buffers": [
    {
      "byteLength": 257224,
      "uri": "scene.bin"
    }
  ],
  "extensionsUsed": [
    "KHR_materials_specular"
  ],
  "images": [
    {
      "uri": "textures/roof_baseColor.jpeg"
    },
    {
      "uri": "textures/roof_metallicRoughness.png"
    },
    {
      "uri": "textures/roof_normal.png"
    },
    {
      "uri": "textures/barn_baseColor.jpeg"
    },
    {
      "uri": "textures/barn_metallicRoughness.png"
    },
    {
      "uri": "textures/barn_normal.png"
    }
  ],
  "materials": [
    {
      "doubleSided": true,
      "name": "earth",
      "pbrMetallicRoughness": {
        "baseColorFactor": [
          0.2482802702197364,
          0.11540411195495247,
          0.06791970883460177,
          1.0
        ],
        "metallicFactor": 0.0
      }
    },
    {
      "doubleSided": true,
      "extensions": {
        "KHR_materials_specular": {
          "specularColorFactor": [
            1.0,
            1.0,
            1.0
          ],
          "specularFactor": 0.010666699174702246
        }
      },
      "name": "roof",
      "normalTexture": {
        "index": 2
      },
      "pbrMetallicRoughness": {
        "baseColorTexture": {
          "index": 0
        },
        "metallicFactor": 0.06552400921602808,
        "metallicRoughnessTexture": {
          "index": 1
        }
      }
    },
    {
      "doubleSided": true,
      "extensions": {
        "KHR_materials_specular": {
          "specularColorFactor": [
            1.0,
            1.0,
            1.0
          ],
          "specularFactor": 0.12038131925735392
        }
      },
      "name": "barn",
      "normalTexture": {
        "index": 5
      },
      "pbrMetallicRoughness": {
        "baseColorTexture": {
          "index": 3
        },
        "metallicFactor": 0.006097560975609756,
        "metallicRoughnessTexture": {
          "index": 4
        }
      }
    }
  ],
  "meshes": [
    {
      "name": "Base_earth_0",
      "primitives": [
        {
          "attributes": {
            "NORMAL": 1,
            "POSITION": 0,
            "TEXCOORD_0": 2
          },
          "indices": 3,
          "material": 0,
          "mode": 4
        }
      ]
    },
    {
      "name": "Roof_roof_0",
      "primitives": [
        {
          "attributes": {
            "NORMAL": 5,
            "POSITION": 4,
            "TANGENT": 6,
            "TEXCOORD_0": 7,
            "TEXCOORD_1": 8,
            "TEXCOORD_2": 9
          },
          "indices": 10,
          "material": 1,
          "mode": 4
        }
      ]
    },
    {
      "name": "barn_barn_0",
      "primitives": [
        {
          "attributes": {
            "NORMAL": 12,
            "POSITION": 11,
            "TANGENT": 13,
            "TEXCOORD_0": 14,
            "TEXCOORD_1": 15,
            "TEXCOORD_2": 16
          },
          "indices": 17,
          "material": 2,
          "mode": 4
        }
      ]
    }
  ],
  "nodes": [
    {
      "children": [
        1
      ],
      "matrix": [
        1.0,
        0.0,
        0.0,
        0.0,
        0.0,
        2.220446049250313e-16,
        -1.0,
        0.0,
        0.0,
        1.0,
        2.220446049250313e-16,
        0.0,
        0.0,
        0.0,
        0.0,
        1.0
      ],
      "name": "Sketchfab_model"
    },
    {
      "children": [
        2
      ],
      "matrix": [
        0.009999999776482582,
        0.0,
        0.0,
        0.0,
        0.0,
        0.0,
        0.009999999776482582,
        0.0,
        0.0,
        -0.009999999776482582,
        0.0,
        0.0,
        0.0,
        0.0,
        0.0,
        1.0
      ],
      "name": "f269aaf8bfb14195aa8f05500e41f11e.fbx"
    },
    {
      "children": [
        3,
        5,
        7
      ],
      "name": "RootNode"
    },
    {
      "children": [
        4
      ],
      "matrix": [
        100.0,
        0.0,
        0.0,
        0.0,
        0.0,
        -1.629206793918314e-05,
        -99.99999999999868,
        0.0,
        0.0,
        99.99999999999868,
        -1.629206793918314e-05,
        0.0,
        0.0,
        0.0,
        0.0,
        1.0
      ],
      "name": "Base"
    },
    {
      "mesh": 0,
      "name": "Base_earth_0"
    },
    {
      "children": [
        6
      ],
      "matrix": [
        100.0,
        0.0,
        0.0,
        0.0,
        0.0,
        -1.629206793918314e-05,
        -99.99999999999868,
        0.0,
        0.0,
        99.99999999999868,
        -1.629206793918314e-05,
        0.0,
        0.0,
        0.0,
        0.0,
        1.0
      ],
      "name": "Roof"
    },
    {
      "mesh": 1,
      "name": "Roof_roof_0"
    },
    {
      "children": [
        8
      ],
      "matrix": [
        100.0,
        0.0,
        0.0,
        0.0,
        0.0,
        -1.629206793918314e-05,
        -99.99999999999868,
        0.0,
        0.0,
        99.99999999999868,
        -1.629206793918314e-05,
        0.0,
        0.0,
        0.0,
        0.0,
        1.0
      ],
      "name": "barn"
    },
    {
      "mesh": 2,
      "name": "barn_barn_0"
    }
  ],
  "samplers": [
    {
      "magFilter": 9729,
      "minFilter": 9987,
      "wrapS": 10497,
      "wrapT": 10497
    }
  ],
  "scene": 0,
  "scenes": [
    {
      "name": "Sketchfab_Scene",
      "nodes": [
        0
      ]
    }
  ],
  "textures": [
    {
      "sampler": 0,
      "source": 0
    },
    {
      "sampler": 0,
      "source": 1
    },
    {
      "sampler": 0,
      "source": 2
    },
    {
      "sampler": 0,
      "source": 3
    },
    {
      "sampler": 0,
      "source": 4
    },
    {
      "sampler": 0,
      "source": 5
    }
  ]
}
