{
  "accessors": [
    {
      "bufferView": 2,
      "componentType": 5126,
      "count": 1399,
      "max": [
        14.738743782043457,
        12.927111625671387,
        37.26394271850586
      ],
      "min": [
        -10.012535095214844,
        -8.962751388549805,
        -0.37240201234817505
      ],
      "type": "VEC3"
    },
    {
      "bufferView": 2,
      "byteOffset": 16788,
      "componentType": 5126,
      "count": 1399,
      "max": [
        0.999336302280426,
        0.9997172355651855,
        0.9955571293830872
      ],
      "min": [
        -0.999976634979248,
        -0.9990094900131226,
        -1.0
      ],
      "type": "VEC3"
    },
    {
      "bufferView": 3,
      "componentType": 5126,
      "count": 1399,
      "max": [
        0.9991602897644043,
        0.9985314607620239,
        0.9993707537651062,
        1.0
      ],
      "min": [
        -0.9991602897644043,
        -0.9991316199302673,
        -0.9963623881340027,
        -1.0
      ],
      "type": "VEC4"
    },
    {
      "bufferView": 1,
      "componentType": 5126,
      "count": 1399,
      "max": [
        2.2411081790924072,
        3.6989643573760986
      ],
      "min": [
        -1.491417407989502,
        -0.896880030632019
      ],
      "type": "VEC2"
    },
    {
      "bufferView": 1,
      "byteOffset": 11192,
      "componentType": 5126,
      "count": 1399,
      "max": [
        7.687427997589111,
        0.9900000691413879
      ],
      "min": [
        -1.0480982065200806,
        0.0
      ],
      "type": "VEC2"
    },
    {
      "bufferView": 1,
      "byteOffset": 22384,
      "componentType": 5126,
      "count": 1399,
      "max": [
        23.60470962524414,
        1.0
      ],
      "min": [
        0.0,
        0.0
      ],
      "type": "VEC2"
    },
    {
      "bufferView": 1,
      "byteOffset": 33576,
      "componentType": 5126,
      "count": 1399,
      "max": [
        3.4392268657684326,
        4.001956462860107
      ],
      "min": [
        -2.2184181213378906,
        0.0
      ],
      "type": "VEC2"
    },
    {
      "bufferView": 1,
      "byteOffset": 44768,
      "componentType": 5126,
      "count": 1399,
      "max": [
        12.421900749206543,
        0.9800000190734863
      ],
      "min": [
        0.0,
        0.0
      ],
      "type": "VEC2"
    },
    {
      "bufferView": 0,
      "componentType": 5125,
      "count": 4995,
      "type": "SCALAR"
    },
    {
      "bufferView": 2,
      "byteOffset": 33576,
      "componentType": 5126,
      "count": 3435,
      "max": [
        24.74614143371582,
        23.23458480834961,
        43.270320892333984
      ],
      "min": [
        -12.575151443481445,
        -19.674205780029297,
        13.990601539611816
      ],
      "type": "VEC3"
    },
    {
      "bufferView": 2,
      "byteOffset": 74796,
      "componentType": 5126,
      "count": 3435,
      "max": [
        0.9793049097061157,
        0.9558557868003845,
        0.9999871253967285
      ],
      "min": [
        -0.7420269846916199,
        -0.8658491969108582,
        0.1897059977054596
      ],
      "type": "VEC3"
    },
    {
      "bufferView": 3,
      "byteOffset": 22384,
      "componentType": 5126,
      "count": 3435,
      "max": [
        0.9997833967208862,
        0.9993690848350525,
        0.9135551452636719,
        1.0
      ],
      "min": [
        -0.9995002150535583,
        -0.9999319314956665,
        -0.8554604053497314,
        1.0
      ],
      "type": "VEC4"
    },
    {
      "bufferView": 1,
      "byteOffset": 55960,
      "componentType": 5126,
      "count": 3435,
      "max": [
        0.999500036239624,
        0.999500036239624
      ],
      "min": [
        0.0005000000237487257,
        0.0005000000237487257
      ],
      "type": "VEC2"
    },
    {
      "bufferView": 1,
      "byteOffset": 83440,
      "componentType": 5126,
      "count": 3435,
      "max": [
        0.999500036239624,
        0.999500036239624
      ],
      "min": [
        0.0005000000237487257,
        0.0005000000237487257
      ],
      "type": "VEC2"
    },
    {
      "bufferView": 1,
      "byteOffset": 110920,
      "componentType": 5126,
      "count": 3435,
      "max": [
        0.0,
        0.0
      ],
      "min": [
        0.0,
        0.0
      ],
      "type": "VEC2"
    },
    {
      "bufferView": 1,
      "byteOffset": 138400,
      "componentType": 5126,
      "count": 3435,
      "max": [
        1.0,
        0.0
      ],
      "min": [
        1.0,
        0.0
      ],
      "type": "VEC2"
    },
    {
      "bufferView": 1,
      "byteOffset": 165880,
      "componentType": 5126,
      "count": 3435,
      "max": [
        99.98540496826172,
        99.79620361328125
      ],
      "min": [
        0.12075699865818024,
        0.2703210115432739
      ],
      "type": "VEC2"
    },
    {
      "bufferView": 1,
      "byteOffset": 193360,
      "componentType": 5126,
      "count": 3435,
      "max": [
        7.312389850616455,
        0.9800000190734863
      ],
      "min": [
        0.0,
        0.0
      ],
      "type": "VEC2"
    },
    {
      "bufferView": 0,
      "byteOffset": 19980,
      "componentType": 5125,
      "count": 8244,
      "type": "SCALAR"
    },
    {
      "bufferView": 2,
      "byteOffset": 116016,
      "componentType": 5126,
      "count": 46,
      "max": [
        3.3050529956817627,
        3.2776107788085938,
        17.649032592773438
      ],
      "min": [
        -0.6834555864334106,
        -2.08052921295166,
        14.892088890075684
      ],
      "type": "VEC3"
    },
    {
      "bufferView": 2,
      "byteOffset": 116568,
      "componentType": 5126,
      "count": 46,
      "max": [
        0.7978608012199402,
        0.9774324297904968,
        0.850764274597168
      ],
      "min": [
        -0.4082266092300415,
        -0.9972249865531921,
        -0.512060821056366
      ],
      "type": "VEC3"
    },
    {
      "bufferView": 3,
      "byteOffset": 77344,
      "componentType": 5126,
      "count": 46,
      "max": [
        -0.6025301218032837,
        0.7378043532371521,
        0.27414199709892273,
        1.0
      ],
      "min": [
        -0.9976621270179749,
        -0.21715588867664337,
        -0.3410118818283081,
        1.0
      ],
      "type": "VEC4"
    },
    {
      "bufferView": 1,
      "byteOffset": 220840,
      "componentType": 5126,
      "count": 46,
      "max": [
        1.018763542175293,
        1.043328046798706
      ],
      "min": [
        -0.01876354217529297,
        -0.04332798719406128
      ],
      "type": "VEC2"
    },
    {
      "bufferView": 1,
      "byteOffset": 221208,
      "componentType": 5126,
      "count": 46,
      "max": [
        1.018763542175293,
        1.043328046798706
      ],
      "min": [
        -0.01876354217529297,
        -0.04332798719406128
      ],
      "type": "VEC2"
    },
    {
      "bufferView": 1,
      "byteOffset": 221576,
      "componentType": 5126,
      "count": 46,
      "max": [
        1.0,
        0.0
      ],
      "min": [
        1.0,
        0.0
      ],
      "type": "VEC2"
    },
    {
      "bufferView": 1,
      "byteOffset": 221944,
      "componentType": 5126,
      "count": 46,
      "max": [
        0.0,
        0.0
      ],
      "min": [
        0.0,
        0.0
      ],
      "type": "VEC2"
    },
    {
      "bufferView": 1,
      "byteOffset": 222312,
      "componentType": 5126,
      "count": 46,
      "max": [
        0.0,
        0.0
      ],
      "min": [
        0.0,
        0.0
      ],
      "type": "VEC2"
    },
    {
      "bufferView": 0,
      "byteOffset": 52956,
      "componentType": 5125,
      "count": 198,
      "type": "SCALAR"
    },
    {
      "bufferView": 2,
      "byteOffset": 117120,
      "componentType": 5126,
      "count": 11,
      "max": [
        6.765562534332275,
        1.539244532585144,
        29.141557693481445
      ],
      "min": [
        5.800501823425293,
        0.6629268527030945,
        28.370880126953125
      ],
      "type": "VEC3"
    },
    {
      "bufferView": 2,
      "byteOffset": 117252,
      "componentType": 5126,
      "count": 11,
      "max": [
        0.8818985223770142,
        0.36958882212638855,
        0.9576168060302734
      ],
      "min": [
        -0.4955432713031769,
        -0.8747819066047668,
        0.41114509105682373
      ],
      "type": "VEC3"
    },
    {
      "bufferView": 3,
      "byteOffset": 78080,
      "componentType": 5126,
      "count": 11,
      "max": [
        0.7681487798690796,
        0.7647087574005127,
        0.6685041189193726,
        1.0
      ],
      "min": [
        0.32664790749549866,
        0.2549521028995514,
        -0.6032177209854126,
        1.0
      ],
      "type": "VEC4"
    },
    {
      "bufferView": 1,
      "byteOffset": 222680,
      "componentType": 5126,
      "count": 11,
      "max": [
        1.0,
        0.9755282402038574
      ],
      "min": [
        0.0,
        0.024471759796142578
      ],
      "type": "VEC2"
    },
    {
      "bufferView": 1,
      "byteOffset": 222768,
      "componentType": 5126,
      "count": 11,
      "max": [
        1.0,
        0.9755282402038574
      ],
      "min": [
        0.0,
        0.024471759796142578
      ],
      "type": "VEC2"
    },
    {
      "bufferView": 1,
      "byteOffset": 222856,
      "componentType": 5126,
      "count": 11,
      "max": [
        1.0,
        0.0
      ],
      "min": [
        1.0,
        0.0
      ],
      "type": "VEC2"
    },
    {
      "bufferView": 1,
      "byteOffset": 222944,
      "componentType": 5126,
      "count": 11,
      "max": [
        0.0,
        0.0
      ],
      "min": [
        0.0,
        0.0
      ],
      "type": "VEC2"
    },
    {
      "bufferView": 1,
      "byteOffset": 223032,
      "componentType": 5126,
      "count": 11,
      "max": [
        0.0,
        0.0
      ],
      "min": [
        0.0,
        0.0
      ],
      "type": "VEC2"
    },
    {
      "bufferView": 0,
      "byteOffset": 53748,
      "componentType": 5125,
      "count": 30,
      "type": "SCALAR"
    }
  ],
  "asset": {
    "extras": {
      "author": "BaptisteBerard (https://sketchfab.com/BaptisteBerard)",
      "license": "CC-BY-4.0 (http://creativecommons.org/licenses/by/4.0/)",
      "source": "https://sketchfab.com/3d-models/tree-ea5e6ed7f9d6445ba69589d503e8cebf",
      "title": "Tree"
    },
    "generator": "Sketchfab-12.67.0",
    "version": "2.0"
  },
  "bufferViews": [
    {
      "buffer": 0,
      "byteLength": 53868,
      "name": "floatBufferViews",
      "target": 34963
    },
    {
      "buffer": 0,
      "byteLength": 223120,
      "byteOffset": 53868,
      "byteStride": 8,
      "name": "floatBufferViews",
      "target": 34962
    },
    {
      "buffer": 0,
      "byteLength": 117384,
      "byteOffset": 276988,
      "byteStride": 12,
      "name": "floatBufferViews",
      "target": 34962
    },
    {
      "buffer": 0,
      "byteLength": 78256,
      "byteOffset": 394372,
      "byteStride": 16,
      "name": "floatBufferViews",
      "target": 34962
    }
  ],
  "buffers": [
    {
      "byteLength": 472628,
      "uri": "scene.bin"
    }
  ],
  "images": [
    {
      "uri": "textures/bark_baseColor.png"
    },
    {
      "uri": "textures/bark_normal.png"
    },
    {
      "uri": "textures/leaves_baseColor.png"
    },
    {
      "uri": "textures/leaves_normal.png"
    },
    {
      "uri": "textures/material_baseColor.png"
    },
    {
      "uri": "textures/material_normal.png"
    }
  ],
  "materials": [
    {
      "doubleSided": true,
      "name": "bark",
      "normalTexture": {
        "index": 1
      },
      "pbrMetallicRoughness": {
        "baseColorTexture": {
          "index": 0
        },
        "metallicFactor": 0.0,
        "roughnessFactor": 0.6
      }
    },
    {
      "alphaCutoff": 0.2761051829268293,
      "alphaMode": "MASK",
      "doubleSided": true,
      "name": "leaves",
      "normalTexture": {
        "index": 3
      },
      "pbrMetallicRoughness": {
        "baseColorTexture": {
          "index": 2
        },
        "metallicFactor": 0.0,
        "roughnessFactor": 0.9556021341463414
      }
    },
    {
      "doubleSided": true,
      "name": "material",
      "normalTexture": {
        "index": 5
      },
      "pbrMetallicRoughness": {
        "baseColorTexture": {
          "index": 4
        },
        "metallicFactor": 0.0,
        "roughnessFactor": 0.6
      }
    },
    {
      "doubleSided": true,
      "name": "Default_Material",
      "normalTexture": {
        "index": 1
      },
      "pbrMetallicRoughness": {
        "baseColorFactor": [
          0.5,
          0.5,
          0.5,
          1.0
        ],
        "metallicFactor": 0.0,
        "roughnessFactor": 0.27877286585365846
      }
    }
  ],
  "meshes": [
    {
      "name": "yggrassil_02_bark_0",
      "primitives": [
        {
          "attributes": {
            "NORMAL": 1,
            "POSITION": 0,
            "TANGENT": 2,
            "TEXCOORD_0": 3,
            "TEXCOORD_1": 4,
            "TEXCOORD_2": 5,
            "TEXCOORD_3": 6,
            "TEXCOORD_4": 7
          },
          "indices": 8,
          "material": 0,
          "mode": 4
        }
      ]
    },
    {
      "name": "yggrassil_02_leaves_0",
      "primitives": [
        {
          "attributes": {
            "NORMAL": 10,
            "POSITION": 9,
            "TANGENT": 11,
            "TEXCOORD_0": 12,
            "TEXCOORD_1": 13,
            "TEXCOORD_2": 14,
            "TEXCOORD_3": 15,
            "TEXCOORD_4": 16,
            "TEXCOORD_5": 17
          },
          "indices": 18,
          "material": 1,
          "mode": 4
        }
      ]
    },
    {
      "name": "yggrassil_02_cap_0",
      "primitives": [
        {
          "attributes": {
            "NORMAL": 20,
            "POSITION": 19,
            "TANGENT": 21,
            "TEXCOORD_0": 22,
            "TEXCOORD_1": 23,
            "TEXCOORD_2": 24,
            "TEXCOORD_3": 25,
            "TEXCOORD_4": 26
          },
          "indices": 27,
          "material": 2,
          "mode": 4
        }
      ]
    },
    {
      "name": "yggrassil_02_Default_Material_0",
      "primitives": [
        {
          "attributes": {
            "NORMAL": 29,
            "POSITION": 28,
            "TANGENT": 30,
            "TEXCOORD_0": 31,
            "TEXCOORD_1": 32,
            "TEXCOORD_2": 33,
            "TEXCOORD_3": 34,
            "TEXCOORD_4": 35
          },
          "indices": 36,
          "material": 3,
          "mode": 4
        }
      ]
    }
  ],
  "nodes": [
    {
      "children": [
        1
      ],
      "matrix": [
        0.0015285166446119547,
        0.0,
        0.0,
        0.0,
        0.0,
        3.3939887447419596e-19,
        -0.0015285166446119547,
        0.0,
        0.0,
        0.0015285166446119547,
        3.3939887447419596e-19,
        0.0,
        0.0,
        0.0,
        0.0,
        1.0
      ],
      "name": "Sketchfab_model"
    },
    {
      "children": [
        2
      ],
      "matrix": [
        1.0,
        0.0,
        0.0,
        0.0,
        0.0,
        0.0,
        1.0,
        0.0,
        0.0,
        -1.0,
        0.0,
        0.0,
        0.0,
        0.0,
        0.0,
        1.0
      ],
      "name": "yggrassil_02.fbx"
    },
    {
      "children": [
        3
      ],
      "name": "RootNode"
    },
    {
      "children": [
        4,
        5,
        6,
        7
      ],
      "matrix": [
        26.845731735229492,
        0.0,
        0.0,
        0.0,
        0.0,
        5.960949897072408e-15,
        -26.845731735229492,
        0.0,
        0.0,
        26.845731735229492,
        5.960949897072408e-15,
        0.0,
        0.0,
        0.0,
        0.0,
        1.0
      ],
      "name": "yggrassil_02"
    },
    {
      "mesh": 0,
      "name": "yggrassil_02_bark_0"
    },
    {
      "mesh": 1,
      "name": "yggrassil_02_leaves_0"
    },
    {
      "mesh": 2,
      "name": "yggrassil_02_cap_0"
    },
    {
      "mesh": 3,
      "name": "yggrassil_02_Default_Material_0"
    }
  ],
  "samplers": [
    {
      "magFilter": 9729,
      "minFilter": 9987,
      "wrapS": 10497,
      "wrapT": 10497
    }
  ],
  "scene": 0,
  "scenes": [
    {
      "name": "Sketchfab_Scene",
      "nodes": [
        0
      ]
    }
  ],
  "textures": [
    {
      "sampler": 0,
      "source": 0
    },
    {
      "sampler": 0,
      "source": 1
    },
    {
      "sampler": 0,
      "source": 2
    },
    {
      "sampler": 0,
      "source": 3
    },
    {
      "sampler": 0,
      "source": 4
    },
    {
      "sampler": 0,
      "source": 5
    }
  ]
}
